<svg id="text" xmlns="http://www.w3.org/2000/svg" width="117.031" height="39.25" viewBox="0 0 117.031 39.25">
  <defs>
    <style>
      .cls-1 {
        fill: #fff;
      }

      .cls-1, .cls-2 {
        fill-rule: evenodd;
      }

      .cls-2 {
        fill: #777;
        stroke: #747474;
        stroke-width: 1px;
      }
    </style>
  </defs>
  <path id="MOLLY_PARADISE" data-name="MOLLY PARADISE" class="cls-1" d="M72.484,71.9v9.953h2.4V79.524L74.65,74.76l2.413,7.089h1.585l2.406-7.082-0.232,4.758v2.324h2.406V71.9H80.07L77.856,78.82,75.635,71.9H72.484Zm21.044,4.724a5.729,5.729,0,0,0-.557-2.546A4.054,4.054,0,0,0,91.43,72.36a4.551,4.551,0,0,0-4.535.007,3.981,3.981,0,0,0-1.538,1.726,5.9,5.9,0,0,0-.537,2.58v0.561a5.7,5.7,0,0,0,.578,2.5A3.984,3.984,0,0,0,86.933,81.4a4.332,4.332,0,0,0,2.255.584,4.272,4.272,0,0,0,2.266-.6,3.991,3.991,0,0,0,1.534-1.726,5.873,5.873,0,0,0,.54-2.577V76.619Zm-2.44.5a4.187,4.187,0,0,1-.5,2.222,1.568,1.568,0,0,1-1.4.772,1.587,1.587,0,0,1-1.442-.786,4.3,4.3,0,0,1-.485-2.249l0.007-.731q0.1-2.707,1.907-2.707a1.589,1.589,0,0,1,1.418.769,4.187,4.187,0,0,1,.5,2.252v0.458ZM97.514,71.9h-2.4v9.953h6.575V80H97.514V71.9Zm7.936,0h-2.4v9.953h6.575V80H105.45V71.9Zm5.435,0h-2.577l3.2,6.378v3.575h2.433V78.273l3.2-6.378h-2.59l-1.832,4.32Zm15.1,6.576a4.324,4.324,0,0,0,2.86-.872,2.88,2.88,0,0,0,1.042-2.328,3.27,3.27,0,0,0-.482-1.76,3.164,3.164,0,0,0-1.36-1.2,4.622,4.622,0,0,0-2.019-.42h-3.971v9.953h2.4V78.472h1.531Zm-1.531-4.724h1.6a1.331,1.331,0,0,1,1.025.424,1.6,1.6,0,0,1,.376,1.114,1.3,1.3,0,0,1-.366.984,1.48,1.48,0,0,1-1.062.349h-1.572V73.748Zm12.077,8.1h2.577L135.431,71.9h-2.255l-3.65,9.953h2.563l0.574-1.859h3.287ZM134.3,74.684l1.073,3.452h-2.139Zm11.333,7.164h2.57v-0.1l-2.078-4.019a2.982,2.982,0,0,0,1.316-1.106,3.234,3.234,0,0,0,.42-1.721,2.662,2.662,0,0,0-1-2.219A4.37,4.37,0,0,0,144.1,71.9h-3.916v9.953h2.4v-3.52h1.3Zm-3.055-8.107H144.1a1.348,1.348,0,0,1,1.025.367,1.636,1.636,0,0,1,0,2.015,1.362,1.362,0,0,1-1.029.36h-1.517V73.741ZM155.9,81.848h2.576L154.795,71.9H152.54l-3.649,9.953h2.562l0.575-1.859h3.287Zm-2.228-7.164,1.073,3.452H152.6Zm9.152,7.164a4.61,4.61,0,0,0,2.341-.619,4.225,4.225,0,0,0,1.627-1.7,5.128,5.128,0,0,0,.577-2.451V76.626a5.094,5.094,0,0,0-.6-2.444,4.207,4.207,0,0,0-1.643-1.689,4.718,4.718,0,0,0-2.372-.6h-3.205v9.953h3.273Zm-0.068-8.1a1.9,1.9,0,0,1,1.613.731,3.573,3.573,0,0,1,.553,2.174v0.431a3.6,3.6,0,0,1-.553,2.184,1.867,1.867,0,0,1-1.586.735h-0.833V73.748h0.806ZM171.5,71.9h-2.392v9.953H171.5V71.9Zm6.805,8.029a1.542,1.542,0,0,1-.939.256,1.953,1.953,0,0,1-1.343-.379,1.526,1.526,0,0,1-.414-1.179H173.2a3.1,3.1,0,0,0,.5,1.74,3.3,3.3,0,0,0,1.476,1.19,5.356,5.356,0,0,0,2.191.434,4.376,4.376,0,0,0,2.7-.745,2.43,2.43,0,0,0,.984-2.051,2.848,2.848,0,0,0-1.613-2.563,8.84,8.84,0,0,0-1.7-.714,5.174,5.174,0,0,1-1.442-.643,0.835,0.835,0,0,1-.037-1.415,1.635,1.635,0,0,1,1.015-.284,1.454,1.454,0,0,1,1.008.335,1.2,1.2,0,0,1,.372.943h2.392a2.851,2.851,0,0,0-.471-1.617,3.047,3.047,0,0,0-1.323-1.09,4.638,4.638,0,0,0-1.924-.383,5.31,5.31,0,0,0-1.982.352,3.119,3.119,0,0,0-1.363.984,2.344,2.344,0,0,0-.482,1.46,2.9,2.9,0,0,0,1.934,2.611,12.6,12.6,0,0,0,1.531.608,4.633,4.633,0,0,1,1.309.608,0.987,0.987,0,0,1,.372.82A0.846,0.846,0,0,1,178.306,79.924Zm10.5-4.078h-3.773v-2.1h4.47V71.9H182.63v9.953h6.855V80h-4.456V77.624H188.8V75.847Z" transform="translate(-72.469 -71.75)"/>
  <path id="_" data-name="ï¬" class="cls-1" d="M133.426,103.573a0.576,0.576,0,0,1-.571.572,6.917,6.917,0,0,0-5.195,2.035c-0.429.4-.822,0.83-1.259,1.223a0.568,0.568,0,0,1-.4.169,0.575,0.575,0,0,1-.571-0.571,0.565,0.565,0,0,1,.17-0.4c2.062-2.276,4.1-3.6,7.257-3.6A0.575,0.575,0,0,1,133.426,103.573Zm4.57-1.767c0-.759-0.33-3.374-1.339-3.374a1.983,1.983,0,0,0-1.481.875c-1.241,1.179-5.133.473-6.963,1.081-2.535.839-4.793,2.865-4.793,5.7a5.321,5.321,0,0,0,.08.929c0.036,0.178.268,0.651,0.268,0.732,0,0.518-1.768,1.241-1.768,2.169a0.685,0.685,0,0,0,.143.393,1.007,1.007,0,0,0,.973.687c0.777,0,1.312-1.821,1.759-1.821a10.288,10.288,0,0,1,1.642.7,8,8,0,0,0,2.553.42,8.756,8.756,0,0,0,3.91-.964,8.221,8.221,0,0,0,4.838-5.811A8.7,8.7,0,0,0,138,101.806Z" transform="translate(-72.469 -71.75)"/>
  <path class="cls-2" d="M79.825,90.831v-1h100.79v1H79.825Z" transform="translate(-72.469 -71.75)"/>
</svg>
